<?xml version="1.0" encoding="UTF-8"?>
<svg xmlns="http://www.w3.org/2000/svg" version="1.1" viewBox="0 0 691.22 536.36">
  <defs>
    <style>
      .cls-1 {
        fill: #213c58;
      }
    </style>
  </defs>
  <!-- Generator: Adobe Illustrator 28.7.2, SVG Export Plug-In . SVG Version: 1.2.0 Build 154)  -->
  <g>
    <g id="Layer_1">
      <g>
        <path class="cls-1" d="M143.08,143.23c-5.86,7.74-5.46,14.91,1.16,21.23,5.61,5.35,13.93,5.07,20.85-.5,1.71-1.38,3.86-4.54,6.07-1.8,2,2.49.32,5.52-2.16,7.34-4.67,3.44-10.03,4.12-15.64,3.23-6.07-.96-10.35.59-12.11,4.43-2.12,4.62,0,11.95,4.41,15.23,10.91,8.13,26.7,6.89,36.39-2.84.31-.31.8-.45,1.88-1.02-.72,5.37-.67,10.24-.12,15.13,1.05,9.33,6.09,14.58,15.2,16.5,16.66,3.52,30.4-1.2,41.92-13.52,7.91-8.47,16.06-16.73,24.17-25.02,3.86-3.95,8.39-6.93,13.56-8.99,3.75-1.49,5.55-.88,5.39,3.63-.95,26.3-1.13,52.62-.87,78.93.24,23.64.25,47.3.9,70.93.23,8.26,1.54,16.58,3.24,24.68,2.12,10.12,9.32,14.18,20.8,16.39,6.5,1.25,13.27.74,19.56,3.43,6.69,2.86,7.16,3.73,6.9,10.76-.66,17.6-1.78,35.17,3.86,52.45,2.08,6.36,1.95,13.5,1.53,20.33-.49,7.86.77,14.97,5.6,21.62,5.64,7.75,4.7,11.43-2.46,17.71-3.04,2.66-4.67,6.41-6.66,9.86-3.93,6.82-20.01,12.42-27.33,9.55-3.81-1.5-5.1-5.49-3.12-9.58,2.06-4.26,5.67-7.33,8.48-11.02,1.32-1.74,2.85-3.46,2.82-5.71-.13-12.27,2.59-24.61-.17-36.77-2.02-8.88-5.03-17.54-7.64-26.28-.42-1.39-.57-3.01-2.37-3.68-1.64.67-1.52,2.44-1.65,3.74-1.33,14.1-2.1,28.19.67,42.26.99,5.04,1.44,10.22,1.72,15.36.22,4.08-.82,7.93-4.33,10.63-3.21,2.47-4.6,5.89-5.56,9.72-2.22,8.91-7.38,14.75-17.1,15.45-2.98.21-5.32,2.63-8.6,2.09-9.83-1.61-11.75-8.02-7.7-17.54,1.52-3.58,4.06-6.94,6.82-9.74,9.19-9.35,10.13-20.76,9.33-32.91-1.58-23.73-7.63-47-7.05-70.93.19-7.96-4.75-13.06-10.87-16.06-14.7-7.22-24.77-18.45-32.32-32.64-2.62-4.92-6.05-9.85-10.28-13.39-10.89-9.1-15.06-21.26-17.14-34.41-1.86-11.77-5.96-22.36-13.35-31.75-4.24-5.38-6.61-6.57-12.48-3.47-11.65,6.15-23.7,5.78-35.98,3.09-6.72-1.47-11.08-5.53-12.86-12.39-2.74-10.53-.71-20.45,3.5-30.12,2.21-5.07,3.82-10.27,4.55-15.75.25-1.85.61-3.8-.26-5.41-4.59-8.51-4.35-17.54-2.76-26.78-2.74-.76-4.35.83-6.08,1.91-5.93,3.67-12.56,5.33-19.29,6.35-11.8,1.79-20.74-2.9-26.95-12.97-2.78-4.51-5.52-8.89-9.97-12.18-4.25-3.14-2.99-9.18,2.28-12.32,4.3-2.55,8.91-4.5,13.82-5.57,8.11-1.76,16.17-4.08,24.63-2.85,4.07.94,8.14,1.87,12.21,2.81.11.1.21.21.32.31-.13-.09-.26-.17-.38-.26-1.17-3.27-4.15-4.02-6.97-5.01-5.2-2.07-10.75-2.12-16.18-2.8-14.4-1.8-25.49-8.21-32.66-21.4-4.91-9.03-7.66-18.73-10.84-28.31-5.06-15.2-11.32-29.83-19.78-43.43-4.96-7.98-12.95-12.76-20.56-17.77-4.42-2.91-9.16-5.36-13.86-7.81C1.22,6.57-.33,5.5.06,3.11.51.32,2.72-.14,4.98.03c14.54,1.14,28.08,5.13,39.47,14.69,15.14,12.7,24.12,29.66,32.61,47.04,5.32,10.89,11.09,22.02,21.07,29.2,13.02,9.36,27.31,17.26,44.27,13.98,7.63-1.48,15.1-1.94,22.75-1.92,5.3.01,10.37,1.07,14.69,4.08,4.36,3.03,8.86,3.63,13.66,1.94,11.79-4.17,22.92-.81,34.15,2.53,5.86,1.75,11.82,3.43,17.86,4.23,3.74.49,7.06-2.47,10.56-3.87,18.48-7.43,30.44-21.88,40.75-38.09,7.81-12.29,17.14-23.26,28.36-32.58,6.44-5.35,14-8.44,22.17-9.51,11.96-1.56,23.86-1.46,34.78,4.88,1.28.74,3.09,1.37,3.05,3.01-.06,2.19-2.3,1.25-3.54,1.77-3.71,1.55-7.63.88-11.36.5-19.3-1.97-33.3,6.79-42.84,22.43-8.29,13.58-14.7,28.29-22.49,42.18-8.41,14.99-20.75,25.7-37.13,31.49-3.37,1.19-6.86,1.16-10.35,1.39-5.14.35-6.02,2.34-3.17,6.68,2.73,4.14,6.97,4.96,11.39,4.89,5.81-.09,11.63-.46,17.43-.9,4.71-.36,9.11.89,15.13,2.06-8.38,5.15-15.44,9.92-22.91,13.92-5.33,2.85-10.3,6.03-14.52,10.27-8.65,8.7-17.31,17.4-25.67,26.37-9.77,10.47-21.52,13.86-35.32,10.9-5.86-1.26-8.84-4.79-9.47-11.76-.42-4.64-.45-9.31-.68-13.96-.04-.83-.2-1.66.58-2.27,2.18-1.72,13.29.32,14.82,2.72,3.49,5.49,10.79,6.89,16.15,3.1,5.52-3.9,6.86-11.67,2.88-16.73-3.92-4.98-12.46-5.5-16.62-.17-2.66,3.41-5.42,3.53-8.97,3.43-10.1-.27-10.1-.2-9.53-9.89.46-7.83.47-7.59,8.19-7.76,4.2-.09,7.05.61,9.82,4.43,3.68,5.07,11.72,4.59,16.47.01,4.67-4.5,4.92-11.16.59-15.61-4.22-4.33-12.63-4.7-16.55.36-4.84,6.24-10.94,2.55-16.42,3.39-1.78.27-1.33-1.55-1.11-2.6,1.04-5.08,1.41-10.22,1.18-15.39-.11-2.54,1.56-2.57,3.3-2.48,3.82.2,7.63.59,11.45.63,2.05.02,2.34,1.37,2.98,2.71,2.89,6.05,7.75,8.42,12.67,6.24,6.4-2.84,9.13-8.79,6.68-14.59-2.39-5.67-8.81-8.39-14.62-6.17-.31.12-.69.23-.86.47-5.76,8.07-14.1,2.99-21.21,4.11-1.12.18-2.17-.45-2.92-1.56-4.12-6.08-10.31-8.62-17.23-9.81-8.07-1.39-16.14-2.51-24.21.17-4.46,1.48-7.8,4.36-10.34,8.14-2.9,4.32-2.79,8.72.4,12.93-.28,3.08,1.74,3.3,4.06,3.48,1.74.13,3.78-.69,5.48,1.17-1.41,1.04-3.83.49-3.7,2.89Z"/>
        <path class="cls-1" d="M663.78,170.06c7.11,3.74,7.7,10.32,9.09,16.4,7,30.59,6.33,61.8,7.58,92.88,1.07,26.33-.24,52.63-.52,78.94-.11,10.21,3.91,19.15,7.21,28.24,5.48,15.11,4.1,30.55,3.4,45.94-.46,10.28-2.11,20.5-5.58,30.3-.82,2.33-1.82,4.61-2.91,6.82-1.1,2.24-2.84,3.69-5.54,3.47-2.93-.25-4.8-2.28-5.18-4.72-2.81-18.29-10.77-35.72-8.29-54.93,1.7-13.18,1.8-26.54,3.71-39.75,1.44-9.99-.7-19.94-1.31-29.89-1.56-25.62-1.72-51.26-1.81-76.9-.04-12.49-.24-24.99-.83-37.46-.19-3.94-.59-9.93-5.2-10.07-3.88-.12-4.3,5.77-4.52,9.34-1.7,26.72-9.13,52.22-15.65,77.98-4.39,17.35-3.85,34.94,6.07,50.68,8.65,13.72,10.73,27.97,7.96,43.81-5.05,28.88-4.62,57.9-.16,86.88.78,5.08.75,10.28.98,15.44.21,4.8-.98,9.2-4.15,12.96-3.88,4.59-4.7,11.42-11.01,14.29-7.02,3.19-14.07,6.02-21.94,5.62-6.47-.33-8.5-3.49-6.4-9.67,2.99-8.81,6.18-17.53,11.8-25.11,4.21-5.67,2.9-12.32,2.33-18.4-1.76-18.81-.58-37.63-.96-56.44-.1-4.84-.21-9.67-2.62-14.07-.74-1.36-.6-3.61-2.85-3.56-1.79.04-2.28,1.89-2.89,3.13-4.72,9.7-9.51,19.38-12.43,29.84-.76,2.72-1.4,5.53-2.62,8.04-4.59,9.44-6,19.63-7.48,29.83-.21,1.47-.26,3.22-1.09,4.3-4.76,6.19-6,13.81-8.83,20.79-4.71,11.62-14.86,16.43-25.89,19.69-3.22.95-7.43,1.22-9.74-2.01-2.18-3.06-2.24-6.92-.66-10.51,1-2.27,1.93-4.67,3.41-6.62,4.36-5.73,7.51-11.96,10-18.74,4.16-11.34,9.84-22.14,12.05-34.17,2.27-12.32,3.32-24.63,1.97-37.2-.96-8.92-.85-17.95-1.03-26.94-.05-2.59,1.45-4.68,3.53-6.3,3.93-3.06,6.36-7.19,7.95-11.79,9.33-27.01,16.97-54.54,25.45-81.81,4.68-15.07,6.94-30.85,12.85-45.56,6.43-15.99,14.17-31.16,28.36-42,10.07-7.69,14.54-18.21,14.39-30.97Z"/>
        <path class="cls-1" d="M510.49,295.23c.47-4.41,1.19-8.29,1.25-12.18.41-28.32,4.68-56.42,4.86-84.75.09-13.98-.69-27.95.13-41.94.23-3.91,1.49-5,5.21-5.24,6.46-.42,12.91-1.28,19.3-2.39,2.67-.46,3.49-.15,3.63,2.66,1.39,28.78,2.04,57.52.47,86.35-1.52,27.91-4.93,55.7-4.57,83.75.21,16.12-1.78,32.24-1.77,48.41,0,8.91-4.49,12.62-13.15,11.81-2.49-.23-4.98-.37-7.47-.65-7.96-.9-10.21-3.12-11.47-11.11-1.03-6.56-1.8-13.19-3.24-19.66-2.68-12.02-6.99-23.55-11.52-34.99-2.3-5.81-3.47-12.04-6.24-17.69-.49.01-.98.02-1.46.03,0,5.31-.13,10.63.02,15.93.52,18.48,1.36,36.95,1.63,55.43.19,13.3-1.49,14.06-13.1,12-4.09-.73-8.14-1.65-12.21-2.5-3.01-.63-4.24-2.65-3.72-5.5,3.91-21.21.92-42.52,1.07-63.79.3-44.81.68-89.62,1.07-134.42.04-4.49.49-8.98.62-13.47.08-2.76.96-4.11,4.05-4.32,6.8-.46,13.6-1.18,20.34-2.2,2.97-.45,3.91.45,4.13,3.19.77,9.79,2.08,19.55,2.38,29.35.42,14.01,2.57,27.85,3.28,41.81,1,19.61,5.86,38.39,11.26,57.09.89,3.09,1.9,6.29,5.21,8.98Z"/>
        <path class="cls-1" d="M440.9,238.9c-1.15,33.45-2.11,66.87,1.51,100.27,1.16,10.71,1.1,21.59-.24,32.37-.41,3.3-1.11,5.1-5.37,3.98-5.11-1.34-11.62-.66-14.83-4.76-3.22-4.1-.75-10.25-.72-15.5.11-19.65.31-39.3.58-58.94.03-2.22-.58-3.47-2.85-3.75-7.95-.98-15.94-.56-23.91-.45-3.03.04-2.26,2.82-2.24,4.64.26,19.14-.85,38.29.03,57.43.11,2.49-.16,5.01.07,7.49.46,4.78-2.28,6.72-6.36,7.2-3.29.38-6.61.33-9.91-.55-7.36-1.95-10.27-5.21-10.02-12.64,1.08-32.82-.39-65.58-1.87-98.35-1.33-29.42-2.58-58.85-3.83-88.27-.39-9.12.16-9.66,9.1-10.1,2.99-.15,5.97-.55,8.96-.54,7.37.02,8.5,1.06,8.72,8.26.45,14.81.83,29.62,1.14,44.44.37,17.81.68,35.63.95,53.44.06,3.95,1.25,6.04,5.82,6.13,5.23.11,10.24-1.05,15.36-1.44,2.52-.19,2.88-2.02,3.03-3.84.37-4.48.8-8.97.77-13.45-.21-27.11-.55-54.22-.85-81.33-.01-1-.16-2.03,0-2.99,1.42-8.06,1.16-10.62,10.94-10.6.83,0,1.67-.04,2.5-.07,11.11-.48,13.42,1.56,13.49,12.98.13,22.98.04,45.96.04,68.94Z"/>
        <path class="cls-1" d="M572.74,168.05c-2.17,0-4.33-.03-6.5,0q-7.55.11-7.28-7.69.45-13.22,13.5-14.62c9.16-.98,18.23.28,27.36.9,10.82.73,21.46,2.24,32.02,4.51,7.36,1.58,14.33,4.14,20.63,8.36,3.35,2.25,4.7,4.95,2.52,8.84-2.98,5.33-4.45,11.42-8.44,16.28-2.5,3.04-4.92,3.66-7.94,1.08-3.99-3.42-8.73-5.42-13.58-7.21-6.37-2.35-8.66-1.35-9.65,5.46-1.8,12.39-5.27,24.36-8.32,36.44-8.3,32.88-16.65,65.75-25.02,98.61-4.96,19.48-10.08,38.93-14.95,58.44-1.06,4.26-2.98,5.94-7.61,5.71-4.42-.22-8.4-1.98-12.72-2.38-2.52-.23-2.01-2.75-1.92-4.47.36-7.21,3.26-13.85,4.9-20.77,7.41-31.19,14.96-62.35,22.62-93.48,5-20.31,10.31-40.54,15.43-60.82,1.87-7.41,3.62-14.85,5.37-22.28,1.47-6.25-1.04-10.03-7.46-10.58-4.3-.37-8.65-.07-12.98-.07,0-.08,0-.16,0-.24Z"/>
        <path class="cls-1" d="M295.42,309.33c-.63-30.83,2.73-61.49,3.89-92.24.74-19.59,2.86-39.13,4.21-58.71.28-4.08,1.49-5.8,6.04-5.24,7.58.93,15.25,1.21,22.89,1.57,2.96.14,3.32,1.39,3.24,4.09-.99,31.28-4.79,62.34-7.04,93.52-1.25,17.39-3.66,34.72-4.39,52.17-.31,7.48-.26,14.98-.48,22.46-.08,2.86,1.36,3.7,3.92,3.92,8.45.7,16.89,1.59,25.33,2.32,8.06.7,9.81,2.62,9.49,10.71-.09,2.32-.2,4.65-.21,6.97-.05,8.31-2.56,10.99-10.97,12.39-11.82,1.96-23.07-1.63-34.52-3.27-5.62-.8-11.05-2.15-16.25-4.51-3.25-1.48-5.28-3.74-5.11-7.23.64-12.99-.11-25.96-.04-38.93Z"/>
        <path class="cls-1" d="M157.64,119.75c6.43.69,12.58.64,18.46,3.02,6.1,2.46,9.26,7.13,8.66,13.16-1.36,13.57-1.21,27.3-3.9,40.71-2.58,12.84-21.66,18.87-31.38,10.08-1.64-1.48-2.87-3.49-2.2-5.79.8-2.71,3.27-1.95,5.09-1.63,5.77,1.01,11.3.24,16.65-1.87,5.36-2.11,8.77-6.07,9.52-11.8.51-3.92-.3-7.75-3.87-10.2-3.73-2.55-7.35-1.09-10.76.86-1.57.9-2.82,2.33-4.35,3.3-3.48,2.19-7.24,3.15-10.47-.1-2.56-2.57-5.11-5.64-2.37-9.63,1.93-2.81,9.84-3.96,12.94-2.04,5.44,3.37,9.09,3.22,12.89-.51,4.7-4.62,5.69-11.01,2.53-16.43-2.46-4.22-6.83-5.7-12.61-3.89-3.94,1.24-7.71,3.03-11.62,4.38-3.12,1.07-7.07,1.38-8.64-1.49-1.9-3.48,2.02-5.45,4.38-7.33,3.31-2.63,7.42-2.55,11.06-2.81Z"/>
        <path class="cls-1" d="M143.08,143.23c-.13-2.41,2.29-1.85,3.7-2.89-1.71-1.86-3.75-1.04-5.48-1.17-2.32-.18-4.34-.4-4.06-3.48,7.32,3.97,14.6,3.36,21.87-.18,1.48-.72,2.95-1.57,4.52-2.02,2.41-.69,5.05-1.32,6.2,1.97,1.08,3.08-.29,5.47-2.52,7.46-.61.54-1.51.87-2.27.25-7.34-6.01-14.64-2.38-21.95.07Z"/>
        <path class="cls-1" d="M218.2,127.29c2.52.23,4.09,1.79,4.24,4.07.16,2.41-1.66,4.09-3.89,4.4-2.4.33-3.4-1.5-3.6-3.73-.23-2.49.71-4.15,3.26-4.74Z"/>
        <path class="cls-1" d="M215.83,153.26c2.15.54,3.71,1.34,3.39,3.69-.35,2.58-2.22,3.66-4.49,3.63-1.95-.03-3.59-1.21-3.24-3.46.39-2.41,2.35-3.35,4.33-3.86Z"/>
        <path class="cls-1" d="M218.92,181.61c-.38,2.42-1.9,4.11-4.48,4.27-1.8.12-3.31-1.11-3.1-3.08.24-2.33,1.77-4.03,4.17-4.2,1.69-.12,3.27.65,3.42,3Z"/>
        <path class="cls-1" d="M124.08,134.07c-4.07-.94-8.14-1.87-12.21-2.81,1.61-.99,4.65,1.46,5.18-2.14,2.82.98,5.8,1.74,6.97,5.01l.06-.06Z"/>
        <path class="cls-1" d="M124.02,134.12c.13.09.26.17.38.26-.11-.1-.22-.21-.32-.31,0,0-.06.06-.06.06Z"/>
      </g>
    </g>
  </g>
</svg>