<?xml version="1.0" encoding="UTF-8"?>
<svg xmlns="http://www.w3.org/2000/svg" version="1.1" viewBox="0 0 619.57 347.71">
  <defs>
    <style>
      .cls-1 {
        fill: #213c58;
      }
    </style>
  </defs>
  <!-- Generator: Adobe Illustrator 28.7.2, SVG Export Plug-In . SVG Version: 1.2.0 Build 154)  -->
  <g>
    <g id="Layer_1">
      <g>
        <path class="cls-1" d="M450.74,152.99c11.79,2.67,23.54,5.48,34.6,10.55,9.62,4.41,10.73,11.83,3.13,19.01-3.68,3.48-7.93,6.04-12.17,8.59-7.4,4.45-13.87,10.02-18.62,17.06-7.08,10.51-19.24,11.03-29.43,7.98-5.7-1.71-11.1-4.37-16.2-7.54-2.82-1.75-5.72-3.46-8.77-4.76-6.15-2.63-8.5-.93-8.69,5.78-.21,7.33-.69,14.74-3.17,21.63-2.26,6.26-6.21,11.52-12.58,14.64-4.16,2.04-7.88,4.97-12.02,7.06-6.35,3.21-11.14,1.92-15.69-3.72-4.77-5.92-11.29-7.99-18.76-5.15-5.08,1.93-9.57.55-14-1.26-3.82-1.56-6.56-12.86-4.31-16.24.79-1.18,2.09-.84,3.18-.86,7.83-.13,15.66-.1,23.49-.33,1.99-.06,2.89.89,3.97,2.24,4.51,5.69,12.26,7.73,18.81,5.09,6.39-2.58,9.39-9.45,7-16.06-1.96-5.44-11.17-8.96-17.55-6.64-3.33,1.21-6.38,2.84-7.96,6.33-.97,2.13-2.45,3-5.04,2.9-7.32-.27-14.66-.23-21.99-.05-3.1.07-4.38-.58-4.21-4.08.33-6.81.17-13.66.04-20.49-.05-2.54.71-3.59,3.38-3.58,8,.03,16,0,23.99-.31,2.57-.1,3.38,1.39,4.6,3,4.83,6.39,14.11,7.57,20.43,2.71,5.07-3.9,6.21-10.04,2.79-15.01-3.89-5.66-13.12-7.47-19.26-3.76-.71.43-1.62.86-1.95,1.53-2.98,6.18-8.58,4.93-13.74,4.98-5.5.06-11,.02-16.49.24-2.74.11-3.83-.65-3.78-3.6.13-7.83.02-15.66-.15-23.49-.05-2.38.72-3.22,3.12-3.2,8.66.06,17.33.05,25.99-.14,2.11-.05,2.78,1.22,3.87,2.49,4.22,4.92,11.05,6.43,16.8,3.89,5.58-2.47,8.33-7.14,7.46-12.71-.78-4.99-5.63-9.47-11.16-9.79-5.98-.34-11.36,1.19-14.25,7.06-1,2.03-2.26,2.42-4.28,2.4-8.66-.09-17.33,0-25.99-.07-1.15,0-2.97.88-3.34-1.06-1.76-9.3-9.57-11.79-16.77-14.55-13.4-5.14-26.82-4.62-39.57,2.11-8.73,4.61-13.42,12.25-13.55,22.25-.08,5.79,3.53,9.16,9.36,9.41,4.08.17,8.08-.4,11.59-2.46,5.31-3.11,11.16-4.24,17.04-5.3,3.32-.59,6.81-.02,7.75,3.59,1.05,4.01-1.26,6.85-5.39,7.42-7.24,1-14.5,1.81-21.78,2.45-4.03.35-7.89,1.2-11.58,2.78-7.74,3.3-10.47,7.96-9.17,15.55,1.14,6.6,6.79,11.33,14.13,11.89,6.28.48,12.23-.85,18.09-2.94,1.71-.61,3.49-1.12,5.28-1.34,3.55-.43,7.5-.79,8.22,3.99.68,4.49-3.05,5.58-6.36,6.1-5.74.9-11.55,1.39-17.34,1.97-4.49.45-8.63,1.43-12.66,3.9-8.27,5.07-9.13,19.06-2.49,25.97,6.94,7.22,15.38,11,25.1,11.85,8.06.71,13.97-3.36,18.32-9.89,5.14-7.7,8.18-8.06,15.07-1.54,2.02,1.92,3.55,4.38,5.65,6.19,6.67,5.76,14.56,7.3,22.89,5.07,5.5-1.47,9.47-.81,13.05,4.02,4.95,6.7,13.44,8.57,21.04,5.23,2.98-1.31,5.86-2.84,9.56-4.65-5.65,16.95-7.39,34.05-11.56,50.63-1.46,5.81-5.01,10.59-10.43,12.66-9.18,3.51-15.25,9.93-19.36,18.34-3.55,7.26-9.52,9.59-16.89,10.22-8.97.77-17.87,1.15-26.59-1.79-3.46-1.17-6.06-3.15-7.79-6.49-4.75-9.18-10.9-16.74-21.13-20.69-5.37-2.07-8.5-7.12-9.99-12.97-3.73-14.67-5.28-29.8-9.7-44.33-2.49-8.21-5.37-16.04-11.74-22.16-4.53-4.35-4.96-10.43-6.04-16.07-.87-4.54-.94-9.25-1.16-13.9-.28-5.88-2.48-7.47-7.97-5.19-7.52,3.13-14.02,8.23-21.67,11.17-8.51,3.27-16.93,4.53-25.56.62-2.67-1.21-4.64-3.18-6.33-5.46-6.54-8.81-14.6-15.89-24.13-21.26-3.67-2.07-6.77-4.79-9.82-7.59-5.29-4.88-4.64-12.39,1.69-15.81,8.8-4.75,18.24-7.92,28.04-9.97,3.23-.67,6.42-1.51,9.63-2.28,12.52-3.06,23.8,2.87,35.69,4.97-6.43-4.17-13.78-5.88-20.75-8.52-15.33-6.28-25.19-18.28-34.09-31.63-8.78-13.16-15.4-27.52-23.9-40.8-9.83-15.36-21.22-29.37-36.54-39.52-19.39-12.85-40.68-19.87-64.22-19.43-7.14.13-14.3-.56-21.46-.86-1.55-.06-3.09-.08-3.49-2.03-.42-2.04,1.28-2.42,2.52-3.17C19.62,1.77,38.13-.66,57.71.18c33.23,1.43,60.04,16.22,83.91,37.97,13.79,12.57,26.33,26.19,36.63,41.8,1.09,1.65,2.32,3.29,3.79,4.59,10.58,9.33,20.65,19.24,31.76,27.97,4.73,3.71,9.9,6.72,15.56,8.65,7.92,2.7,15.44,1.27,22.4-3.23,12.77-8.25,26.65-9.61,41.21-6.71,4.98.99,9.45,3.1,12.99,6.84,2.4,2.54,4.93,2.89,7.32.34,5.51-5.88,12.68-7.77,20.22-8.33,11.83-.88,23.23.67,33.48,7.37,13.88,9.06,25.34,5.46,38.73-5.01,11.09-8.68,21.66-18.13,31.7-28.02,5.72-5.64,9.66-13.04,14.83-19.28,18.28-22.03,38.97-41.32,64.87-54.16C533.82,2.69,551.91.68,570.38.05c16.53-.56,31.51,3.63,45.73,11.51,1.45.81,3.96,1.04,3.38,3.61-.63,2.8-3.11,1.9-4.97,2.03-12.61.84-25.31.19-37.86,2.11-13.38,2.06-25.91,6.47-37.81,13.01-25.88,14.23-41.81,37.16-55.18,62.38-6.4,12.07-13.84,23.45-21.89,34.47-6.74,9.22-15.68,15.62-25.98,20.27-6.97,2.63-14.31,4.35-21.99,8.46,4.36.75,6.97-.8,9.69-1.66,8.88-2.81,17.76-5.46,27.24-3.25Z"/>
        <path class="cls-1" d="M305.57,231.2c-10.44-5.54-14.17-4.49-20.89,5.67-4.23,6.39-8.54,8.16-16.16,6.68-6.2-1.2-11.54-3.94-16.1-8.35-3.37-3.26-4.19-7.13-3-11.41,1.18-4.27,4.5-6.29,8.64-7.29,6.2-1.5,12.61-.89,18.85-1.98,3.29-.57,6.49-1.22,9.51-2.79,4.83-2.52,6.31-6.56,5.73-11.62-.58-5.05-3.78-8.62-8.68-9.62-4.88-1-9.48.15-14.16,1.65-5.62,1.79-11.26,4.08-17.47,1.91-3.72-1.3-5.32-4-5.74-7.4-.41-3.32,2.09-4.85,4.82-6.15,5.1-2.43,10.59-2.74,16.04-3.27,5.63-.54,11.29-.72,16.85-1.92,7.09-1.54,11.79-7.6,11.08-14.34-.64-6.06-5.75-9.79-13.44-9.79-7.12,0-13.79,1.81-20.13,4.97-.15.07-.29.18-.44.23-3.65,1.33-8.01,4.66-11.02,1.3-3.01-3.36-.28-7.85,1.94-11.42,4.46-7.2,11.94-9.27,19.46-10.68,10.81-2.03,20.68,1.6,30.21,6.26,1.84.9,2.42,2.67,2.64,4.55.52,4.46,1.4,8.92,1.42,13.38.14,23.75.07,47.51.07,71.42Z"/>
        <path class="cls-1" d="M356.51,227.16c-2.63-.45-6.15-.98-6.59-5.16-.27-2.64,4.62-5.96,8.23-5.68,3.2.25,6.42,1.1,7.01,4.99.43,2.88-3.81,5.86-8.65,5.86Z"/>
        <path class="cls-1" d="M357.59,155.05c-3.17-.6-6.32-1.67-6.41-5.24-.09-3.61,2.89-5.26,6.13-5.15,3.13.11,6.86.81,6.88,4.96.02,3.96-3.42,4.81-6.6,5.43Z"/>
        <path class="cls-1" d="M357.2,192.7c-3.12-.75-6.76-1.2-6.44-5.4.3-3.95,3.73-4.84,6.97-4.69,2.99.14,6.23,1.03,6.13,4.97-.11,4.17-3.56,4.55-6.65,5.12Z"/>
      </g>
    </g>
  </g>
</svg>